<?xml version="1.0" encoding="UTF-8"?>
<svg id="Layer_1" data-name="Layer 1" xmlns="http://www.w3.org/2000/svg" viewBox="0 0 616.3 214.25">
  <defs>
    <style>
      .cls-1 {
        fill: #e1d7ff;
      }

      .cls-1, .cls-2, .cls-3 {
        stroke-width: 0px;
      }

      .cls-2 {
        fill: #fff;
      }

      .cls-3 {
        fill: #c2aff0;
      }
    </style>
  </defs>
  <path class="cls-2" d="m250.11,22.79c-1.66.83-3.02,1.94-4.08,3.33-1.07,1.39-1.85,3-2.35,4.84-.5,1.84-.76,3.76-.76,5.77v11.72c0,2.55-.52,4.22-1.55,5.02-1.04.8-2.44,1.2-4.22,1.2v12.61c1.78,0,3.18.4,4.22,1.2,1.03.8,1.55,2.47,1.55,5.02v11.72c0,2.01.25,3.94.76,5.77.5,1.83,1.29,3.45,2.35,4.84,1.07,1.39,2.43,2.5,4.08,3.33,1.66.83,3.67,1.24,6.04,1.24h8.52v-12.16h-3.02c-1.72,0-2.89-.56-3.51-1.69-.62-1.12-.93-2.34-.93-3.64v-11.98c0-1.72-.27-3.18-.8-4.39-.53-1.21-1.17-2.2-1.91-2.97-.74-.77-1.55-1.35-2.44-1.73-.89-.38-1.69-.63-2.4-.75v-.18c.71-.06,1.51-.3,2.4-.71.89-.41,1.7-1.01,2.44-1.78.74-.77,1.38-1.76,1.91-2.97.53-1.21.8-2.68.8-4.39v-11.98c0-1.3.31-2.51.93-3.64.62-1.12,1.79-1.69,3.51-1.69h3.02v-12.16h-8.52c-2.37,0-4.38.41-6.04,1.24Z"/>
  <path class="cls-2" d="m322.94,73.18s-.77-3.14-7.02-8.95v18.02h0v.62c0,1.3-.31,2.52-.93,3.64-.61,1.11-1.76,1.67-3.44,1.68-1.56-.06-2.66-.6-3.24-1.66-.62-1.12-.93-2.34-.93-3.64v-11.98c0-1.72-.27-3.18-.8-4.39-.53-1.21-1.17-2.2-1.91-2.97-.74-.77-1.55-1.35-2.44-1.73-.89-.38-1.69-.63-2.4-.75v-.18c.71-.06,1.51-.3,2.4-.71.89-.41,1.7-1.01,2.44-1.78.57-.59,1.08-1.32,1.53-2.18-1.8-1.63-3.26-3.25-4.37-4.84-1.73-2.15-2.77-4.84-2.77-7.78,0-6.99,5.86-12.65,13.09-12.65.93,0,1.82.11,2.7.29v-9.68h-8.52c-2.37,0-4.38.41-6.04,1.24-1.66.83-3.02,1.94-4.08,3.33-1.07,1.39-1.85,3-2.35,4.84-.5,1.84-.76,3.76-.76,5.77v11.72c0,2.55-.52,4.22-1.55,5.02-1.02.78-2.39,1.18-4.11,1.19h-7.26V21.55h-13.36v78.83h13.36v-33.12h7.16c1.78,0,3.18.41,4.22,1.2,1.03.8,1.55,2.47,1.55,5.02v11.72c0,2.01.25,3.94.76,5.77.5,1.83,1.29,3.45,2.35,4.84,1.07,1.39,2.43,2.5,4.08,3.33s3.67,1.24,6.04,1.24h10.68c2.37,0,4.38-.42,6.04-1.24,1.66-.83,3.02-1.94,4.08-3.33,1.07-1.39,1.85-3.01,2.35-4.84.5-1.84.76-3.76.76-5.78v-21.18c-6.48,5.96-7.28,9.18-7.28,9.18Z"/>
  <path class="cls-3" d="m332.02,34.71c-3.74,0-7.04,1.64-9.01,4.15-1.97-2.5-5.27-4.15-9.01-4.15-6.03,0-10.91,4.27-10.91,9.53,0,2.21.86,4.24,2.31,5.86,1.4,1.81,3.45,3.68,6.17,5.52,10.38,7.03,11.44,10.92,11.44,10.92,0,0,1.06-3.89,11.44-10.92,2.72-1.84,4.77-3.71,6.17-5.52,1.45-1.62,2.31-3.65,2.31-5.86,0-5.26-4.89-9.53-10.91-9.53Z"/>
  <path class="cls-2" d="m354.35,53.47c-1.03-.8-1.55-2.47-1.55-5.02v-11.72c0-2.01-.25-3.94-.76-5.77-.5-1.83-1.29-3.45-2.35-4.84-1.07-1.39-2.43-2.5-4.08-3.33-1.66-.83-3.67-1.24-6.04-1.24h-8.52v9.68c.87-.18,1.77-.29,2.7-.29,7.23,0,13.09,5.66,13.09,12.65,0,2.93-1.04,5.63-2.77,7.78-1.11,1.59-2.57,3.22-4.37,4.84.45.86.96,1.59,1.53,2.18.74.77,1.55,1.36,2.44,1.78.89.41,1.69.65,2.4.71v.18c-.71.12-1.51.37-2.4.75-.89.39-1.7.96-2.44,1.73-.74.77-1.38,1.76-1.91,2.97-.53,1.21-.8,2.68-.8,4.39v11.98c0,1.3-.31,2.52-.93,3.64-.62,1.12-1.79,1.69-3.51,1.69h-1.34v-.02h-.6c-.11,1.29-.32,2.55-.66,3.76-.5,1.84-1.29,3.45-2.35,4.84-1.07,1.39-2.43,2.5-4.08,3.33-.19.09-.39.16-.59.24h15.13c2.37,0,4.38-.42,6.04-1.24,1.66-.83,3.02-1.94,4.08-3.33,1.07-1.39,1.85-3,2.35-4.84.5-1.84.76-3.76.76-5.77v-11.72c0-2.54.52-4.22,1.55-5.02,1.04-.8,2.44-1.2,4.22-1.2v-12.61c-1.78,0-3.18-.4-4.22-1.2Z"/>
  <path class="cls-1" d="m338.64,49.82c1.24-1.38,1.98-3.1,1.98-4.98,0-4.5-4.25-8.15-9.49-8.15-.28,0-.55.02-.83.04,4.32,3.02,7.39,7.68,8.34,13.08Z"/>
  <g>
    <path class="cls-2" d="m223.83,162.28h10.03v1.92h-7.63v5.88h7.05v1.89h-7.05v8h-2.4v-17.69Z"/>
    <path class="cls-2" d="m253.21,170.94c0,6.09-3.9,9.32-8.65,9.32s-8.37-3.62-8.37-8.97c0-5.62,3.68-9.29,8.65-9.29s8.37,3.7,8.37,8.95Zm-14.46.29c0,3.78,2.16,7.16,5.94,7.16s5.97-3.33,5.97-7.35c0-3.52-1.93-7.19-5.94-7.19s-5.97,3.49-5.97,7.37Z"/>
    <path class="cls-2" d="m258.74,162.28v10.47c0,3.96,1.85,5.64,4.34,5.64,2.76,0,4.53-1.73,4.53-5.64v-10.47h2.43v10.31c0,5.43-3.01,7.66-7.05,7.66-3.81,0-6.69-2.07-6.69-7.56v-10.42h2.43Z"/>
    <path class="cls-2" d="m274.22,179.97v-17.69h2.63l5.97,8.95c1.38,2.07,2.46,3.94,3.34,5.75l.05-.03c-.22-2.36-.28-4.51-.28-7.27v-7.4h2.27v17.69h-2.43l-5.91-8.97c-1.3-1.97-2.54-3.99-3.48-5.9l-.08.03c.14,2.23.19,4.36.19,7.29v7.56h-2.27Z"/>
    <path class="cls-2" d="m292.41,162.52c1.46-.21,3.21-.37,5.11-.37,3.45,0,5.91.76,7.55,2.2,1.66,1.44,2.63,3.49,2.63,6.35s-.94,5.25-2.68,6.87c-1.74,1.65-4.62,2.55-8.24,2.55-1.71,0-3.15-.08-4.37-.21v-17.4Zm2.4,15.64c.61.1,1.49.13,2.43.13,5.14,0,7.93-2.73,7.93-7.5.03-4.17-2.46-6.82-7.55-6.82-1.24,0-2.18.11-2.82.24v13.96Z"/>
    <path class="cls-2" d="m313.44,174.41l-1.93,5.56h-2.49l6.33-17.69h2.9l6.36,17.69h-2.57l-1.99-5.56h-6.61Zm6.11-1.78l-1.82-5.09c-.41-1.15-.69-2.2-.97-3.23h-.05c-.28,1.05-.58,2.13-.94,3.2l-1.82,5.12h5.61Z"/>
    <path class="cls-2" d="m328.76,164.23h-5.67v-1.94h13.79v1.94h-5.69v15.74h-2.43v-15.74Z"/>
    <path class="cls-2" d="m341.36,162.28v17.69h-2.4v-17.69h2.4Z"/>
    <path class="cls-2" d="m361.49,170.94c0,6.09-3.9,9.32-8.65,9.32s-8.37-3.62-8.37-8.97c0-5.62,3.68-9.29,8.65-9.29s8.37,3.7,8.37,8.95Zm-14.46.29c0,3.78,2.16,7.16,5.94,7.16s5.97-3.33,5.97-7.35c0-3.52-1.93-7.19-5.94-7.19s-5.97,3.49-5.97,7.37Z"/>
    <path class="cls-2" d="m364.61,179.97v-17.69h2.63l5.97,8.95c1.38,2.07,2.46,3.94,3.34,5.75l.06-.03c-.22-2.36-.28-4.51-.28-7.27v-7.4h2.27v17.69h-2.43l-5.91-8.97c-1.3-1.97-2.54-3.99-3.48-5.9l-.08.03c.14,2.23.19,4.36.19,7.29v7.56h-2.27Z"/>
  </g>
  <g>
    <path class="cls-2" d="m142.3,127.05v20.49h-6.4v-20.49h-7.48v-5.32h21.36v5.32h-7.48Z"/>
    <path class="cls-2" d="m163.96,147.54v-9.84c0-.51-.04-1-.11-1.46-.07-.46-.22-.87-.43-1.22-.21-.35-.49-.63-.84-.84-.35-.21-.8-.31-1.35-.31-1.07,0-1.89.37-2.47,1.11-.57.74-.86,1.66-.86,2.75v9.81h-6.13v-27.56h6.13v11.7h.07c.42-.73,1.1-1.38,2.02-1.95.92-.57,2.03-.86,3.33-.86s2.34.22,3.2.66c.86.44,1.56,1,2.09,1.7.54.69.92,1.49,1.16,2.39.24.9.36,1.8.36,2.7v11.23h-6.17Z"/>
    <path class="cls-2" d="m193.24,138.68v.73c0,.24-.01.47-.04.69h-13.5c.05.51.21.97.47,1.39.26.41.6.77,1.01,1.08.41.3.87.54,1.38.71.51.17,1.04.26,1.59.26.97,0,1.8-.18,2.47-.53.67-.35,1.22-.81,1.65-1.37l4.26,2.63c-.87,1.24-2.03,2.19-3.46,2.86-1.43.67-3.1,1-4.99,1-1.4,0-2.72-.21-3.96-.64-1.25-.42-2.34-1.05-3.27-1.86-.94-.81-1.67-1.82-2.21-3.01-.54-1.19-.8-2.55-.8-4.08s.26-2.83.79-4.03c.52-1.2,1.23-2.22,2.13-3.06.9-.84,1.96-1.49,3.18-1.95,1.22-.46,2.54-.69,3.96-.69s2.63.23,3.78.67c1.15.45,2.13,1.1,2.95,1.95.82.85,1.46,1.88,1.93,3.1.46,1.22.69,2.6.69,4.16Zm-5.65-2.3c0-.95-.31-1.76-.92-2.44-.61-.68-1.53-1.02-2.75-1.02-.6,0-1.15.09-1.65.27-.5.18-.94.43-1.31.75-.37.32-.67.69-.9,1.11-.22.43-.35.87-.37,1.33h7.89Z"/>
    <path class="cls-2" d="m222.9,147.54l-9.84-11.89h-.08v11.89h-6.25v-25.81h6.25v10.5h.11l9.46-10.5h8l-11.41,11.89,12.08,13.93h-8.34Z"/>
    <path class="cls-2" d="m239.65,123.58c0,.46-.09.89-.28,1.29-.19.4-.44.75-.75,1.04-.31.29-.69.52-1.12.69-.44.17-.89.26-1.37.26-1,0-1.83-.32-2.51-.97-.67-.64-1.01-1.42-1.01-2.32,0-.44.09-.86.26-1.26.17-.4.42-.75.75-1.04.32-.29.7-.53,1.12-.71.42-.18.88-.27,1.38-.27s.93.09,1.37.26c.44.17.81.4,1.12.69.31.29.56.64.75,1.04.19.4.28.83.28,1.29Zm-6.58,23.96v-18.16h6.13v18.16h-6.13Z"/>
    <path class="cls-2" d="m256.3,147.54v-9.92c0-.51-.04-1-.13-1.46-.09-.46-.23-.87-.43-1.22-.2-.35-.48-.63-.84-.84-.36-.21-.82-.31-1.36-.31s-1.03.1-1.44.31c-.41.21-.75.49-1.03.86-.27.36-.48.78-.62,1.26-.14.47-.21.97-.21,1.48v9.84h-6.17v-18.16h5.95v2.52h.08c.22-.39.52-.77.88-1.15.36-.38.79-.7,1.27-.97s1.02-.49,1.59-.66c.57-.17,1.18-.25,1.83-.25,1.25,0,2.31.22,3.18.66.87.44,1.58,1,2.11,1.7.54.69.92,1.49,1.16,2.39.24.9.36,1.8.36,2.7v11.23h-6.17Z"/>
    <path class="cls-2" d="m281.2,147.54v-2.37h-.08c-.6.92-1.45,1.63-2.56,2.13-1.11.5-2.29.75-3.53.75-1.4,0-2.64-.27-3.74-.8-1.1-.53-2.03-1.25-2.79-2.13-.76-.89-1.34-1.91-1.74-3.08-.4-1.17-.6-2.38-.6-3.65s.21-2.47.62-3.63c.41-1.15,1-2.17,1.76-3.04.76-.88,1.68-1.57,2.77-2.08,1.08-.51,2.3-.77,3.65-.77s2.53.25,3.48.77c.95.51,1.68,1.07,2.21,1.68h.08v-11.34h6.13v27.56h-5.65Zm-.22-9.12c0-.58-.11-1.15-.32-1.71-.21-.56-.51-1.06-.9-1.5-.39-.44-.85-.79-1.4-1.06-.55-.27-1.17-.4-1.87-.4s-1.36.13-1.91.4c-.55.27-1.01.61-1.38,1.04-.37.43-.65.92-.84,1.48-.19.56-.28,1.13-.28,1.71s.09,1.16.28,1.73c.19.57.47,1.08.84,1.51.37.44.84.79,1.38,1.06.55.27,1.18.4,1.91.4s1.32-.13,1.87-.4c.55-.27,1.02-.62,1.4-1.06.39-.44.69-.94.9-1.49.21-.56.32-1.13.32-1.71Z"/>
    <path class="cls-2" d="m303.94,147.54v-9.92c0-.51-.04-1-.13-1.46-.09-.46-.23-.87-.43-1.22-.2-.35-.48-.63-.84-.84-.36-.21-.82-.31-1.36-.31s-1.03.1-1.44.31c-.41.21-.75.49-1.03.86-.27.36-.48.78-.62,1.26-.14.47-.21.97-.21,1.48v9.84h-6.17v-18.16h5.95v2.52h.08c.22-.39.52-.77.88-1.15.36-.38.79-.7,1.27-.97s1.02-.49,1.59-.66c.57-.17,1.18-.25,1.83-.25,1.25,0,2.31.22,3.18.66.87.44,1.58,1,2.11,1.7.54.69.92,1.49,1.16,2.39.24.9.36,1.8.36,2.7v11.23h-6.17Z"/>
    <path class="cls-2" d="m333.23,138.68v.73c0,.24-.01.47-.04.69h-13.5c.05.51.21.97.47,1.39.26.41.6.77,1.01,1.08.41.3.87.54,1.38.71.51.17,1.04.26,1.59.26.97,0,1.8-.18,2.47-.53.67-.35,1.22-.81,1.65-1.37l4.26,2.63c-.87,1.24-2.03,2.19-3.46,2.86-1.43.67-3.1,1-4.99,1-1.4,0-2.72-.21-3.96-.64-1.25-.42-2.34-1.05-3.27-1.86-.94-.81-1.67-1.82-2.21-3.01-.54-1.19-.8-2.55-.8-4.08s.26-2.83.79-4.03c.52-1.2,1.23-2.22,2.13-3.06.9-.84,1.96-1.49,3.18-1.95,1.22-.46,2.54-.69,3.96-.69s2.63.23,3.78.67c1.15.45,2.13,1.1,2.95,1.95.82.85,1.46,1.88,1.93,3.1.46,1.22.69,2.6.69,4.16Zm-5.65-2.3c0-.95-.31-1.76-.92-2.44-.61-.68-1.53-1.02-2.75-1.02-.6,0-1.15.09-1.65.27-.5.18-.94.43-1.31.75-.37.32-.67.69-.9,1.11-.22.43-.35.87-.37,1.33h7.89Z"/>
    <path class="cls-2" d="m348,134.74c-.5-.46-1.08-.85-1.76-1.17-.67-.32-1.38-.47-2.13-.47-.57,0-1.1.11-1.59.33s-.73.6-.73,1.13.27.88.8,1.09c.54.22,1.4.46,2.6.73.7.15,1.4.35,2.11.62.71.27,1.35.62,1.93,1.06.57.44,1.03.97,1.38,1.6.35.63.52,1.39.52,2.26,0,1.14-.24,2.11-.71,2.9-.47.79-1.09,1.43-1.85,1.91-.76.49-1.61.84-2.56,1.06-.95.22-1.9.33-2.84.33-1.52,0-3.01-.24-4.47-.71s-2.67-1.17-3.65-2.1l3.44-3.54c.55.58,1.22,1.07,2.02,1.46.8.39,1.65.58,2.54.58.5,0,.99-.12,1.48-.35.49-.23.73-.64.73-1.22s-.3-.97-.9-1.24c-.6-.27-1.53-.55-2.8-.84-.65-.15-1.3-.34-1.94-.58-.65-.24-1.23-.57-1.74-.98-.51-.41-.93-.92-1.25-1.53-.32-.61-.49-1.34-.49-2.19,0-1.09.24-2.02.71-2.79.47-.77,1.08-1.39,1.83-1.88.75-.49,1.58-.84,2.49-1.08.91-.23,1.81-.35,2.71-.35,1.4,0,2.76.21,4.1.64,1.33.43,2.46,1.06,3.38,1.91l-3.37,3.39Z"/>
    <path class="cls-2" d="m365.65,134.74c-.5-.46-1.08-.85-1.76-1.17-.67-.32-1.38-.47-2.13-.47-.57,0-1.1.11-1.59.33s-.73.6-.73,1.13.27.88.8,1.09c.54.22,1.4.46,2.6.73.7.15,1.4.35,2.11.62.71.27,1.35.62,1.93,1.06.57.44,1.03.97,1.38,1.6.35.63.52,1.39.52,2.26,0,1.14-.24,2.11-.71,2.9-.47.79-1.09,1.43-1.85,1.91-.76.49-1.61.84-2.56,1.06-.95.22-1.9.33-2.84.33-1.52,0-3.01-.24-4.47-.71s-2.67-1.17-3.65-2.1l3.44-3.54c.55.58,1.22,1.07,2.02,1.46.8.39,1.65.58,2.54.58.5,0,.99-.12,1.48-.35.49-.23.73-.64.73-1.22s-.3-.97-.9-1.24c-.6-.27-1.53-.55-2.8-.84-.65-.15-1.3-.34-1.94-.58-.65-.24-1.23-.57-1.74-.98-.51-.41-.93-.92-1.25-1.53-.32-.61-.49-1.34-.49-2.19,0-1.09.24-2.02.71-2.79.47-.77,1.08-1.39,1.83-1.88.75-.49,1.58-.84,2.49-1.08.91-.23,1.81-.35,2.71-.35,1.4,0,2.76.21,4.1.64,1.33.43,2.46,1.06,3.38,1.91l-3.37,3.39Z"/>
    <path class="cls-2" d="m400.99,147.08c-1.72.77-3.7,1.15-5.95,1.15-2.04,0-3.93-.33-5.67-.98-1.73-.66-3.24-1.59-4.51-2.79-1.27-1.2-2.27-2.64-2.99-4.32-.72-1.68-1.08-3.52-1.08-5.54s.37-3.94,1.1-5.62c.74-1.68,1.75-3.1,3.05-4.28,1.3-1.18,2.82-2.08,4.56-2.72,1.74-.63,3.63-.95,5.65-.95,1.87,0,3.71.32,5.52.97,1.81.64,3.27,1.59,4.39,2.83l-4.34,4.23c-.6-.8-1.38-1.4-2.36-1.79-.97-.39-1.97-.58-2.99-.58-1.12,0-2.15.2-3.09.6s-1.74.95-2.41,1.66c-.67.71-1.2,1.54-1.57,2.5-.37.96-.56,2.01-.56,3.15s.19,2.24.56,3.21c.37.97.89,1.8,1.55,2.5s1.45,1.23,2.37,1.62c.92.39,1.93.58,3.03.58,1.27,0,2.38-.24,3.33-.73.95-.49,1.71-1.12,2.28-1.9l4.45,4.08c-1.17,1.31-2.62,2.35-4.34,3.12Z"/>
    <path class="cls-2" d="m427.02,138.39c0,1.48-.27,2.83-.82,4.03-.55,1.2-1.3,2.22-2.24,3.06-.95.84-2.04,1.49-3.29,1.95-1.25.46-2.58.69-4,.69s-2.72-.23-3.98-.69c-1.26-.46-2.36-1.11-3.29-1.95-.94-.84-1.68-1.86-2.23-3.06-.55-1.2-.82-2.55-.82-4.03s.27-2.82.82-4.01c.55-1.19,1.29-2.2,2.23-3.03.93-.83,2.03-1.46,3.29-1.9,1.26-.44,2.59-.66,3.98-.66s2.75.22,4,.66c1.25.44,2.34,1.07,3.29,1.9.95.83,1.7,1.84,2.24,3.03.55,1.19.82,2.53.82,4.01Zm-5.91,0c0-.58-.1-1.15-.3-1.71-.2-.56-.49-1.05-.86-1.48-.37-.42-.84-.77-1.38-1.04-.55-.27-1.18-.4-1.91-.4s-1.36.13-1.91.4c-.55.27-1,.61-1.37,1.04-.36.43-.64.92-.82,1.48-.19.56-.28,1.13-.28,1.71s.09,1.15.28,1.71c.19.56.47,1.06.84,1.51.37.45.83.81,1.38,1.08.55.27,1.18.4,1.91.4s1.36-.13,1.91-.4c.55-.27,1.01-.63,1.38-1.08.37-.45.65-.95.84-1.51.19-.56.28-1.13.28-1.71Z"/>
    <path class="cls-2" d="m445.01,147.54v-2.37h-.08c-.6.92-1.45,1.63-2.56,2.13-1.11.5-2.29.75-3.53.75-1.4,0-2.64-.27-3.74-.8-1.1-.53-2.03-1.25-2.79-2.13-.76-.89-1.34-1.91-1.74-3.08-.4-1.17-.6-2.38-.6-3.65s.21-2.47.62-3.63c.41-1.15,1-2.17,1.76-3.04.76-.88,1.68-1.57,2.77-2.08,1.08-.51,2.3-.77,3.65-.77s2.53.25,3.48.77c.95.51,1.68,1.07,2.21,1.68h.08v-11.34h6.13v27.56h-5.65Zm-.22-9.12c0-.58-.11-1.15-.32-1.71-.21-.56-.51-1.06-.9-1.5-.39-.44-.85-.79-1.4-1.06-.55-.27-1.17-.4-1.87-.4s-1.36.13-1.91.4c-.55.27-1.01.61-1.38,1.04-.37.43-.65.92-.84,1.48-.19.56-.28,1.13-.28,1.71s.09,1.16.28,1.73c.19.57.47,1.08.84,1.51.37.44.84.79,1.38,1.06.55.27,1.18.4,1.91.4s1.32-.13,1.87-.4c.55-.27,1.02-.62,1.4-1.06.39-.44.69-.94.9-1.49.21-.56.32-1.13.32-1.71Z"/>
    <path class="cls-2" d="m474,138.68v.73c0,.24-.01.47-.04.69h-13.5c.05.51.21.97.47,1.39.26.41.6.77,1.01,1.08.41.3.87.54,1.38.71.51.17,1.04.26,1.59.26.97,0,1.8-.18,2.47-.53.67-.35,1.22-.81,1.65-1.37l4.26,2.63c-.87,1.24-2.03,2.19-3.46,2.86-1.43.67-3.1,1-4.99,1-1.4,0-2.72-.21-3.96-.64-1.25-.42-2.34-1.05-3.27-1.86-.94-.81-1.67-1.82-2.21-3.01-.54-1.19-.8-2.55-.8-4.08s.26-2.83.79-4.03c.52-1.2,1.23-2.22,2.13-3.06.9-.84,1.96-1.49,3.18-1.95,1.22-.46,2.54-.69,3.96-.69s2.63.23,3.78.67c1.15.45,2.13,1.1,2.95,1.95.82.85,1.46,1.88,1.93,3.1.46,1.22.69,2.6.69,4.16Zm-5.65-2.3c0-.95-.31-1.76-.92-2.44-.61-.68-1.53-1.02-2.75-1.02-.6,0-1.15.09-1.65.27-.5.18-.94.43-1.31.75-.37.32-.67.69-.9,1.11-.22.43-.35.87-.37,1.33h7.89Z"/>
  </g>
</svg>