<?xml version="1.0" encoding="UTF-8"?>
<svg id="Layer_1" data-name="Layer 1" xmlns="http://www.w3.org/2000/svg" viewBox="0 0 616.3 121.93">
  <defs>
    <style>
      .cls-1 {
        fill: #e1d7ff;
      }

      .cls-1, .cls-2, .cls-3 {
        stroke-width: 0px;
      }

      .cls-2 {
        fill: #fff;
      }

      .cls-3 {
        fill: #c2aff0;
      }
    </style>
  </defs>
  <path class="cls-2" d="m28.97,22.79c-1.66.83-3.02,1.94-4.08,3.33-1.07,1.39-1.85,3-2.35,4.84-.5,1.84-.76,3.76-.76,5.77v11.72c0,2.55-.52,4.22-1.55,5.02-1.04.8-2.44,1.2-4.22,1.2v12.61c1.78,0,3.18.4,4.22,1.2,1.03.8,1.55,2.47,1.55,5.02v11.72c0,2.01.25,3.94.76,5.77.5,1.83,1.29,3.45,2.35,4.84,1.07,1.39,2.43,2.5,4.08,3.33,1.66.83,3.67,1.24,6.04,1.24h8.52v-12.16h-3.02c-1.72,0-2.89-.56-3.51-1.69-.62-1.12-.93-2.34-.93-3.64v-11.98c0-1.72-.27-3.18-.8-4.39-.53-1.21-1.17-2.2-1.91-2.97-.74-.77-1.55-1.35-2.44-1.73-.89-.38-1.69-.63-2.4-.75v-.18c.71-.06,1.51-.3,2.4-.71.89-.41,1.7-1.01,2.44-1.78.74-.77,1.38-1.76,1.91-2.97.53-1.21.8-2.68.8-4.39v-11.98c0-1.3.31-2.51.93-3.64.62-1.12,1.79-1.69,3.51-1.69h3.02v-12.16h-8.52c-2.37,0-4.38.41-6.04,1.24Z"/>
  <path class="cls-2" d="m101.8,73.18s-.77-3.14-7.02-8.95v18.02h0v.62c0,1.3-.31,2.52-.93,3.64-.61,1.11-1.76,1.67-3.44,1.68-1.56-.06-2.66-.6-3.24-1.66-.62-1.12-.93-2.34-.93-3.64v-11.98c0-1.72-.27-3.18-.8-4.39-.53-1.21-1.17-2.2-1.91-2.97-.74-.77-1.55-1.35-2.44-1.73-.89-.38-1.69-.63-2.4-.75v-.18c.71-.06,1.51-.3,2.4-.71.89-.41,1.7-1.01,2.44-1.78.57-.59,1.08-1.32,1.53-2.18-1.8-1.63-3.26-3.25-4.37-4.84-1.73-2.15-2.77-4.84-2.77-7.78,0-6.99,5.86-12.65,13.09-12.65.93,0,1.82.11,2.7.29v-9.68h-8.52c-2.37,0-4.38.41-6.04,1.24-1.66.83-3.02,1.94-4.08,3.33-1.07,1.39-1.85,3-2.35,4.84-.5,1.84-.76,3.76-.76,5.77v11.72c0,2.55-.52,4.22-1.55,5.02-1.02.78-2.39,1.18-4.11,1.19h-7.26V21.55h-13.36v78.83h13.36v-33.12h7.16c1.78,0,3.18.41,4.22,1.2,1.03.8,1.55,2.47,1.55,5.02v11.72c0,2.01.25,3.94.76,5.77.5,1.83,1.29,3.45,2.35,4.84,1.07,1.39,2.43,2.5,4.08,3.33s3.67,1.24,6.04,1.24h10.68c2.37,0,4.38-.42,6.04-1.24,1.66-.83,3.02-1.94,4.08-3.33,1.07-1.39,1.85-3.01,2.35-4.84.5-1.84.76-3.76.76-5.78v-21.18c-6.48,5.96-7.28,9.18-7.28,9.18Z"/>
  <path class="cls-3" d="m110.88,34.71c-3.74,0-7.04,1.64-9.01,4.15-1.97-2.5-5.27-4.15-9.01-4.15-6.03,0-10.91,4.27-10.91,9.53,0,2.21.86,4.24,2.31,5.86,1.4,1.81,3.45,3.68,6.17,5.52,10.38,7.03,11.44,10.92,11.44,10.92,0,0,1.06-3.89,11.44-10.92,2.72-1.84,4.77-3.71,6.17-5.52,1.45-1.62,2.31-3.65,2.31-5.86,0-5.26-4.89-9.53-10.91-9.53Z"/>
  <path class="cls-2" d="m133.21,53.47c-1.03-.8-1.55-2.47-1.55-5.02v-11.72c0-2.01-.25-3.94-.76-5.77-.5-1.83-1.29-3.45-2.35-4.84-1.07-1.39-2.43-2.5-4.08-3.33-1.66-.83-3.67-1.24-6.04-1.24h-8.52v9.68c.87-.18,1.77-.29,2.7-.29,7.23,0,13.09,5.66,13.09,12.65,0,2.93-1.04,5.63-2.77,7.78-1.11,1.59-2.57,3.22-4.37,4.84.45.86.96,1.59,1.53,2.18.74.77,1.55,1.36,2.44,1.78.89.41,1.69.65,2.4.71v.18c-.71.12-1.51.37-2.4.75-.89.39-1.7.96-2.44,1.73-.74.77-1.38,1.76-1.91,2.97-.53,1.21-.8,2.68-.8,4.39v11.98c0,1.3-.31,2.52-.93,3.64-.62,1.12-1.79,1.69-3.51,1.69h-1.34v-.02h-.6c-.11,1.29-.32,2.55-.66,3.76-.5,1.84-1.29,3.45-2.35,4.84-1.07,1.39-2.43,2.5-4.08,3.33-.19.09-.39.16-.59.24h15.13c2.37,0,4.38-.42,6.04-1.24,1.66-.83,3.02-1.94,4.08-3.33,1.07-1.39,1.85-3,2.35-4.84.5-1.84.76-3.76.76-5.77v-11.72c0-2.54.52-4.22,1.55-5.02,1.04-.8,2.44-1.2,4.22-1.2v-12.61c-1.78,0-3.18-.4-4.22-1.2Z"/>
  <path class="cls-1" d="m117.5,49.82c1.24-1.38,1.98-3.1,1.98-4.98,0-4.5-4.25-8.15-9.49-8.15-.28,0-.55.02-.83.04,4.32,3.02,7.39,7.68,8.34,13.08Z"/>
  <g>
    <path class="cls-2" d="m172.92,76.97h12.47v2.38h-9.48v7.31h8.76v2.35h-8.76v9.95h-2.99v-21.99Z"/>
    <path class="cls-2" d="m209.45,87.73c0,7.57-4.84,11.58-10.76,11.58s-10.41-4.5-10.41-11.16c0-6.98,4.57-11.55,10.76-11.55s10.41,4.6,10.41,11.12Zm-17.97.36c0,4.7,2.68,8.91,7.39,8.91s7.42-4.14,7.42-9.13c0-4.37-2.41-8.94-7.39-8.94s-7.42,4.34-7.42,9.17Z"/>
    <path class="cls-2" d="m216.33,76.97v13.02c0,4.93,2.3,7.01,5.4,7.01,3.44,0,5.64-2.15,5.64-7.01v-13.02h3.02v12.82c0,6.75-3.75,9.53-8.76,9.53-4.74,0-8.32-2.58-8.32-9.4v-12.95h3.02Z"/>
    <path class="cls-2" d="m235.58,98.95v-21.99h3.26l7.42,11.12c1.72,2.58,3.06,4.89,4.16,7.14l.07-.03c-.27-2.94-.34-5.61-.34-9.04v-9.2h2.82v21.99h-3.02l-7.35-11.16c-1.62-2.45-3.16-4.96-4.33-7.34l-.1.03c.17,2.77.24,5.42.24,9.07v9.4h-2.82Z"/>
    <path class="cls-2" d="m258.19,77.26c1.82-.26,3.99-.46,6.36-.46,4.3,0,7.35.95,9.38,2.74,2.06,1.79,3.26,4.34,3.26,7.89s-1.17,6.52-3.33,8.55c-2.16,2.06-5.74,3.16-10.24,3.16-2.13,0-3.92-.1-5.43-.26v-21.63Zm2.99,19.44c.76.13,1.86.16,3.02.16,6.39,0,9.86-3.39,9.86-9.33.03-5.19-3.06-8.48-9.38-8.48-1.55,0-2.71.13-3.5.29v17.36Z"/>
    <path class="cls-2" d="m284.34,92.04l-2.41,6.92h-3.09l7.87-21.99h3.61l7.9,21.99h-3.2l-2.47-6.92h-8.21Zm7.59-2.22l-2.27-6.33c-.52-1.44-.86-2.74-1.2-4.01h-.07c-.34,1.3-.72,2.64-1.17,3.98l-2.27,6.36h6.98Z"/>
    <path class="cls-2" d="m303.38,79.38h-7.04v-2.41h17.15v2.41h-7.08v19.57h-3.02v-19.57Z"/>
    <path class="cls-2" d="m319.05,76.97v21.99h-2.99v-21.99h2.99Z"/>
    <path class="cls-2" d="m344.07,87.73c0,7.57-4.85,11.58-10.76,11.58s-10.41-4.5-10.41-11.16c0-6.98,4.57-11.55,10.76-11.55s10.41,4.6,10.41,11.12Zm-17.97.36c0,4.7,2.68,8.91,7.39,8.91s7.42-4.14,7.42-9.13c0-4.37-2.41-8.94-7.39-8.94s-7.42,4.34-7.42,9.17Z"/>
    <path class="cls-2" d="m347.96,98.95v-21.99h3.26l7.42,11.12c1.72,2.58,3.06,4.89,4.16,7.14l.07-.03c-.27-2.94-.34-5.61-.34-9.04v-9.2h2.82v21.99h-3.02l-7.35-11.16c-1.62-2.45-3.16-4.96-4.33-7.34l-.1.03c.17,2.77.24,5.42.24,9.07v9.4h-2.82Z"/>
  </g>
  <g>
    <path class="cls-2" d="m181.54,37.62v25.48h-7.95v-25.48h-9.3v-6.62h26.55v6.62h-9.3Z"/>
    <path class="cls-2" d="m208.47,63.1v-12.24c0-.63-.05-1.24-.14-1.81-.09-.57-.27-1.08-.53-1.52-.26-.44-.61-.79-1.05-1.04-.43-.26-.99-.39-1.67-.39-1.33,0-2.36.46-3.07,1.38-.71.92-1.07,2.06-1.07,3.42v12.19h-7.63V28.83h7.63v14.55h.09c.53-.91,1.36-1.71,2.51-2.43,1.15-.71,2.53-1.06,4.14-1.06s2.91.27,3.98.82c1.07.54,1.94,1.25,2.6,2.11.67.86,1.15,1.85,1.44,2.97.29,1.12.44,2.24.44,3.35v13.96h-7.67Z"/>
    <path class="cls-2" d="m244.87,52.08v.91c0,.3-.02.59-.05.86h-16.79c.06.63.26,1.21.58,1.72.33.51.74.96,1.26,1.34.51.38,1.08.67,1.72.88.64.21,1.29.32,1.98.32,1.21,0,2.23-.22,3.07-.66.84-.44,1.52-1,2.05-1.7l5.3,3.26c-1.09,1.54-2.52,2.73-4.3,3.56-1.78.83-3.85,1.25-6.21,1.25-1.74,0-3.38-.26-4.93-.79-1.55-.53-2.91-1.3-4.07-2.31-1.16-1.01-2.08-2.26-2.74-3.74-.67-1.48-1-3.17-1-5.08s.33-3.51.98-5.01c.65-1.5,1.53-2.77,2.65-3.81,1.12-1.04,2.43-1.85,3.95-2.43,1.52-.57,3.16-.86,4.93-.86s3.27.28,4.7.84c1.43.56,2.65,1.37,3.67,2.43,1.02,1.06,1.82,2.34,2.4,3.85.57,1.51.86,3.23.86,5.17Zm-7.02-2.86c0-1.18-.38-2.19-1.14-3.04-.76-.85-1.9-1.27-3.42-1.27-.74,0-1.43.11-2.05.34-.62.23-1.16.54-1.63.93-.46.39-.84.85-1.12,1.38-.28.53-.43,1.08-.47,1.65h9.81Z"/>
    <path class="cls-2" d="m281.75,63.1l-12.23-14.78h-.09v14.78h-7.76V31h7.76v13.06h.14l11.76-13.06h9.95l-14.18,14.78,15.02,17.32h-10.37Z"/>
    <path class="cls-2" d="m302.58,33.31c0,.57-.12,1.11-.35,1.61-.23.5-.54.93-.93,1.29-.39.36-.85.65-1.4.86-.54.21-1.11.32-1.7.32-1.24,0-2.28-.4-3.12-1.2-.84-.8-1.26-1.76-1.26-2.88,0-.54.11-1.06.33-1.56.22-.5.53-.93.93-1.29.4-.36.87-.66,1.4-.88.53-.23,1.1-.34,1.72-.34s1.15.11,1.7.32c.54.21,1.01.5,1.4.86.39.36.7.79.93,1.29.23.5.35,1.04.35,1.61Zm-8.18,29.78v-22.57h7.63v22.57h-7.63Z"/>
    <path class="cls-2" d="m323.27,63.1v-12.33c0-.63-.05-1.24-.16-1.81-.11-.57-.29-1.08-.53-1.52-.25-.44-.6-.79-1.05-1.04-.45-.26-1.02-.39-1.7-.39s-1.28.13-1.79.39c-.51.26-.94.61-1.28,1.06-.34.45-.6.97-.77,1.56-.17.59-.26,1.2-.26,1.84v12.24h-7.67v-22.57h7.39v3.13h.09c.28-.48.64-.96,1.09-1.43.45-.47.98-.87,1.58-1.2s1.26-.6,1.98-.82c.71-.21,1.47-.32,2.28-.32,1.55,0,2.87.27,3.95.82,1.08.54,1.96,1.25,2.63,2.11.67.86,1.15,1.85,1.44,2.97.29,1.12.44,2.24.44,3.35v13.96h-7.67Z"/>
    <path class="cls-2" d="m354.23,63.1v-2.95h-.09c-.74,1.15-1.81,2.03-3.19,2.65-1.38.62-2.84.93-4.39.93-1.74,0-3.29-.33-4.65-1-1.36-.66-2.52-1.55-3.46-2.65-.95-1.1-1.67-2.38-2.16-3.83-.5-1.45-.74-2.96-.74-4.53s.26-3.07.77-4.51c.51-1.44,1.24-2.7,2.19-3.79.94-1.09,2.09-1.95,3.44-2.58,1.35-.63,2.86-.95,4.53-.95s3.15.32,4.32.95c1.18.63,2.09,1.33,2.74,2.09h.09v-14.1h7.63v34.27h-7.02Zm-.28-11.33c0-.73-.13-1.44-.4-2.13-.26-.69-.64-1.31-1.12-1.86-.48-.54-1.06-.98-1.74-1.31-.68-.33-1.46-.5-2.33-.5s-1.69.17-2.37.5c-.68.33-1.26.76-1.72,1.29-.46.53-.81,1.14-1.05,1.84-.23.7-.35,1.41-.35,2.13s.12,1.44.35,2.15c.23.71.58,1.34,1.05,1.88.47.54,1.04.98,1.72,1.31.68.33,1.47.5,2.37.5s1.64-.17,2.33-.5c.68-.33,1.26-.77,1.74-1.31.48-.54.85-1.16,1.12-1.86.26-.69.4-1.41.4-2.13Z"/>
    <path class="cls-2" d="m382.5,63.1v-12.33c0-.63-.05-1.24-.16-1.81-.11-.57-.29-1.08-.53-1.52-.25-.44-.6-.79-1.05-1.04-.45-.26-1.02-.39-1.7-.39s-1.28.13-1.79.39c-.51.26-.94.61-1.28,1.06-.34.45-.6.97-.77,1.56-.17.59-.26,1.2-.26,1.84v12.24h-7.67v-22.57h7.39v3.13h.09c.28-.48.64-.96,1.09-1.43.45-.47.98-.87,1.58-1.2s1.26-.6,1.98-.82c.71-.21,1.47-.32,2.28-.32,1.55,0,2.87.27,3.95.82,1.08.54,1.96,1.25,2.63,2.11.67.86,1.15,1.85,1.44,2.97.29,1.12.44,2.24.44,3.35v13.96h-7.67Z"/>
    <path class="cls-2" d="m418.91,52.08v.91c0,.3-.02.59-.05.86h-16.79c.06.63.26,1.21.58,1.72.33.51.74.96,1.26,1.34.51.38,1.08.67,1.72.88.64.21,1.29.32,1.98.32,1.21,0,2.23-.22,3.07-.66.84-.44,1.52-1,2.05-1.7l5.3,3.26c-1.09,1.54-2.52,2.73-4.3,3.56-1.78.83-3.85,1.25-6.21,1.25-1.74,0-3.38-.26-4.93-.79-1.55-.53-2.91-1.3-4.07-2.31-1.16-1.01-2.08-2.26-2.74-3.74-.67-1.48-1-3.17-1-5.08s.33-3.51.98-5.01c.65-1.5,1.53-2.77,2.65-3.81,1.12-1.04,2.43-1.85,3.95-2.43,1.52-.57,3.16-.86,4.93-.86s3.27.28,4.7.84c1.43.56,2.65,1.37,3.67,2.43,1.02,1.06,1.82,2.34,2.4,3.85.57,1.51.86,3.23.86,5.17Zm-7.02-2.86c0-1.18-.38-2.19-1.14-3.04-.76-.85-1.9-1.27-3.42-1.27-.74,0-1.43.11-2.05.34-.62.23-1.16.54-1.63.93-.46.39-.84.85-1.12,1.38-.28.53-.43,1.08-.47,1.65h9.81Z"/>
    <path class="cls-2" d="m437.28,47.19c-.62-.57-1.35-1.06-2.19-1.45-.84-.39-1.72-.59-2.65-.59-.71,0-1.37.14-1.98.41s-.91.74-.91,1.41.33,1.09,1,1.36c.67.27,1.74.57,3.23.91.87.18,1.74.44,2.63.77.88.33,1.68.77,2.39,1.31.71.54,1.29,1.21,1.72,1.99.43.79.65,1.72.65,2.81,0,1.42-.29,2.62-.88,3.6-.59.98-1.36,1.78-2.3,2.38-.95.6-2.01,1.04-3.19,1.31-1.18.27-2.36.41-3.53.41-1.89,0-3.74-.29-5.56-.88s-3.32-1.46-4.53-2.61l4.28-4.4c.68.73,1.52,1.33,2.51,1.81.99.48,2.05.73,3.16.73.62,0,1.23-.14,1.84-.43.6-.29.91-.79.91-1.52s-.37-1.21-1.12-1.54c-.74-.33-1.91-.68-3.49-1.04-.81-.18-1.61-.42-2.42-.73-.81-.3-1.53-.71-2.16-1.22-.64-.51-1.16-1.15-1.56-1.9-.4-.75-.6-1.66-.6-2.72,0-1.36.29-2.52.88-3.47.59-.95,1.35-1.73,2.28-2.33.93-.6,1.96-1.05,3.09-1.34,1.13-.29,2.25-.43,3.37-.43,1.74,0,3.43.26,5.09.79,1.66.53,3.06,1.32,4.21,2.38l-4.18,4.22Z"/>
    <path class="cls-2" d="m459.22,47.19c-.62-.57-1.35-1.06-2.19-1.45-.84-.39-1.72-.59-2.65-.59-.71,0-1.37.14-1.98.41s-.91.74-.91,1.41.33,1.09,1,1.36c.67.27,1.74.57,3.23.91.87.18,1.74.44,2.63.77.88.33,1.68.77,2.39,1.31.71.54,1.29,1.21,1.72,1.99.43.79.65,1.72.65,2.81,0,1.42-.29,2.62-.88,3.6-.59.98-1.36,1.78-2.3,2.38-.95.6-2.01,1.04-3.19,1.31-1.18.27-2.36.41-3.53.41-1.89,0-3.74-.29-5.56-.88s-3.32-1.46-4.53-2.61l4.28-4.4c.68.73,1.52,1.33,2.51,1.81.99.48,2.05.73,3.16.73.62,0,1.23-.14,1.84-.43.6-.29.91-.79.91-1.52s-.37-1.21-1.12-1.54c-.74-.33-1.91-.68-3.49-1.04-.81-.18-1.61-.42-2.42-.73-.81-.3-1.53-.71-2.16-1.22-.64-.51-1.16-1.15-1.56-1.9-.4-.75-.6-1.66-.6-2.72,0-1.36.29-2.52.88-3.47.59-.95,1.35-1.73,2.28-2.33.93-.6,1.96-1.05,3.09-1.34,1.13-.29,2.25-.43,3.37-.43,1.74,0,3.43.26,5.09.79,1.66.53,3.06,1.32,4.21,2.38l-4.18,4.22Z"/>
    <path class="cls-2" d="m503.16,62.53c-2.14.95-4.6,1.43-7.39,1.43-2.54,0-4.89-.41-7.04-1.22-2.15-.82-4.02-1.97-5.6-3.47-1.58-1.5-2.82-3.29-3.72-5.37-.9-2.08-1.35-4.38-1.35-6.89s.46-4.9,1.37-6.98c.91-2.08,2.18-3.86,3.79-5.33,1.61-1.47,3.5-2.59,5.67-3.38,2.17-.79,4.51-1.18,7.02-1.18,2.32,0,4.61.4,6.86,1.2,2.25.8,4.07,1.97,5.46,3.51l-5.39,5.26c-.74-1-1.72-1.74-2.93-2.22-1.21-.48-2.45-.73-3.72-.73-1.39,0-2.67.25-3.84.75s-2.16,1.19-3,2.06c-.84.88-1.49,1.91-1.95,3.11-.47,1.19-.7,2.5-.7,3.92s.23,2.78.7,3.99c.46,1.21,1.11,2.24,1.93,3.1s1.81,1.53,2.95,2.02c1.15.48,2.4.73,3.77.73,1.58,0,2.96-.3,4.14-.91,1.18-.6,2.12-1.39,2.84-2.36l5.53,5.08c-1.46,1.63-3.25,2.92-5.39,3.88Z"/>
    <path class="cls-2" d="m535.52,51.72c0,1.84-.34,3.51-1.02,5.01-.68,1.5-1.61,2.77-2.79,3.81-1.18,1.04-2.54,1.85-4.09,2.42-1.55.57-3.21.86-4.98.86s-3.39-.29-4.95-.86c-1.57-.57-2.93-1.38-4.09-2.42-1.16-1.04-2.09-2.31-2.77-3.81-.68-1.5-1.02-3.17-1.02-5.01s.34-3.51,1.02-4.99c.68-1.48,1.6-2.73,2.77-3.76,1.16-1.03,2.53-1.81,4.09-2.36,1.56-.54,3.22-.82,4.95-.82s3.42.27,4.98.82c1.55.54,2.91,1.33,4.09,2.36,1.18,1.03,2.11,2.28,2.79,3.76.68,1.48,1.02,3.14,1.02,4.99Zm-7.35,0c0-.73-.12-1.44-.37-2.13-.25-.69-.6-1.31-1.07-1.84-.46-.53-1.04-.96-1.72-1.29-.68-.33-1.47-.5-2.37-.5s-1.69.17-2.37.5c-.68.33-1.25.76-1.7,1.29-.45.53-.79,1.14-1.02,1.84-.23.7-.35,1.41-.35,2.13s.12,1.44.35,2.13c.23.7.58,1.32,1.05,1.88.46.56,1.04,1,1.72,1.34.68.33,1.47.5,2.37.5s1.69-.17,2.37-.5c.68-.33,1.26-.78,1.72-1.34.47-.56.81-1.19,1.05-1.88.23-.69.35-1.41.35-2.13Z"/>
    <path class="cls-2" d="m557.89,63.1v-2.95h-.09c-.74,1.15-1.81,2.03-3.19,2.65-1.38.62-2.84.93-4.39.93-1.74,0-3.29-.33-4.65-1-1.36-.66-2.52-1.55-3.46-2.65-.95-1.1-1.67-2.38-2.16-3.83-.5-1.45-.74-2.96-.74-4.53s.26-3.07.77-4.51c.51-1.44,1.24-2.7,2.19-3.79.94-1.09,2.09-1.95,3.44-2.58,1.35-.63,2.86-.95,4.53-.95s3.15.32,4.32.95c1.18.63,2.09,1.33,2.74,2.09h.09v-14.1h7.63v34.27h-7.02Zm-.28-11.33c0-.73-.13-1.44-.4-2.13-.26-.69-.64-1.31-1.12-1.86-.48-.54-1.06-.98-1.74-1.31-.68-.33-1.46-.5-2.33-.5s-1.69.17-2.37.5c-.68.33-1.26.76-1.72,1.29-.46.53-.81,1.14-1.05,1.84-.23.7-.35,1.41-.35,2.13s.12,1.44.35,2.15c.23.71.58,1.34,1.05,1.88.47.54,1.04.98,1.72,1.31.68.33,1.47.5,2.37.5s1.64-.17,2.33-.5c.68-.33,1.26-.77,1.74-1.31.48-.54.85-1.16,1.12-1.86.26-.69.4-1.41.4-2.13Z"/>
    <path class="cls-2" d="m593.92,52.08v.91c0,.3-.02.59-.05.86h-16.79c.06.63.26,1.21.58,1.72.33.51.74.96,1.26,1.34.51.38,1.08.67,1.72.88.64.21,1.29.32,1.98.32,1.21,0,2.23-.22,3.07-.66.84-.44,1.52-1,2.05-1.7l5.3,3.26c-1.09,1.54-2.52,2.73-4.3,3.56-1.78.83-3.85,1.25-6.21,1.25-1.74,0-3.38-.26-4.93-.79-1.55-.53-2.91-1.3-4.07-2.31-1.16-1.01-2.08-2.26-2.74-3.74-.67-1.48-1-3.17-1-5.08s.33-3.51.98-5.01c.65-1.5,1.53-2.77,2.65-3.81,1.12-1.04,2.43-1.85,3.95-2.43,1.52-.57,3.16-.86,4.93-.86s3.27.28,4.7.84c1.43.56,2.65,1.37,3.67,2.43,1.02,1.06,1.82,2.34,2.4,3.85.57,1.51.86,3.23.86,5.17Zm-7.02-2.86c0-1.18-.38-2.19-1.14-3.04-.76-.85-1.9-1.27-3.42-1.27-.74,0-1.43.11-2.05.34-.62.23-1.16.54-1.63.93-.46.39-.84.85-1.12,1.38-.28.53-.43,1.08-.47,1.65h9.81Z"/>
  </g>
</svg>