<?xml version="1.0" encoding="UTF-8"?>
<svg id="Layer_1" data-name="Layer 1" xmlns="http://www.w3.org/2000/svg" viewBox="0 0 144.16 106.81">
  <defs>
    <style>
      .cls-1 {
        fill: #fff;
      }

      .cls-2 {
        fill: #c2aff0;
      }

      .cls-3 {
        fill: #e1d7ff;
      }

      .cls-4 {
        fill: #373737;
      }
    </style>
  </defs>
  <g>
    <g>
      <rect class="cls-4" x="26.23" y="17.04" width="92.72" height="69.69" rx="4.07" ry="4.07"/>
      <g>
        <path class="cls-1" d="m30.87,92.8c-2.59,0-4.85-.47-6.71-1.4-1.85-.93-3.4-2.19-4.6-3.76-1.18-1.54-2.06-3.34-2.61-5.35-.54-1.96-.81-4.03-.81-6.17v-11.72c0-1.96-.35-3.35-.97-3.83-.76-.59-1.87-.89-3.3-.89-.83,0-1.5-.67-1.5-1.5v-12.61c0-.83.67-1.5,1.5-1.5,1.43,0,2.54-.3,3.3-.89.61-.48.97-1.87.97-3.83v-11.72c0-2.14.27-4.21.81-6.17.55-2.01,1.43-3.81,2.61-5.35,1.2-1.57,2.75-2.83,4.6-3.76,1.86-.93,4.12-1.4,6.71-1.4h8.52c.83,0,1.5.67,1.5,1.5v12.16c0,.83-.67,1.5-1.5,1.5h-3.02c-1.69,0-2.06.66-2.19.91-.5.91-.74,1.86-.74,2.91v11.98c0,1.92-.31,3.6-.93,5-.6,1.37-1.34,2.52-2.2,3.41-.58.61-1.21,1.12-1.88,1.54.67.41,1.3.92,1.88,1.52.86.9,1.6,2.04,2.2,3.41.61,1.4.93,3.08.93,5v11.98c0,1.05.24,2.01.75,2.91.14.25.5.91,2.19.91h3.02c.83,0,1.5.67,1.5,1.5v12.16c0,.83-.67,1.5-1.5,1.5h-8.52Z"/>
        <path class="cls-4" d="m39.39,12.47v12.16h-3.02c-1.72,0-2.89.56-3.51,1.69-.62,1.13-.93,2.34-.93,3.64v11.98c0,1.72-.27,3.18-.8,4.39-.53,1.21-1.17,2.21-1.91,2.97-.74.77-1.55,1.36-2.44,1.78-.89.41-1.69.65-2.4.71v.18c.71.12,1.51.37,2.4.75.89.39,1.7.96,2.44,1.73.74.77,1.38,1.76,1.91,2.97.53,1.21.8,2.68.8,4.39v11.98c0,1.3.31,2.52.93,3.64.62,1.12,1.79,1.69,3.51,1.69h3.02v12.16h-8.52c-2.37,0-4.38-.42-6.04-1.24-1.66-.83-3.02-1.94-4.08-3.33-1.07-1.39-1.85-3-2.35-4.84-.5-1.84-.76-3.76-.76-5.77v-11.72c0-2.54-.52-4.22-1.55-5.02-1.04-.8-2.44-1.2-4.22-1.2v-12.61c1.78,0,3.18-.4,4.22-1.2,1.03-.8,1.55-2.47,1.55-5.02v-11.72c0-2.01.25-3.94.76-5.77.5-1.83,1.29-3.45,2.35-4.84,1.07-1.39,2.43-2.5,4.08-3.33,1.66-.83,3.67-1.24,6.04-1.24h8.52m0-3h-8.52c-2.83,0-5.31.52-7.38,1.56-2.06,1.03-3.78,2.44-5.12,4.19-1.3,1.7-2.26,3.67-2.86,5.87-.57,2.08-.86,4.29-.86,6.56v11.72c0,1.94-.35,2.56-.42,2.67-.62.45-1.62.55-2.35.55-1.66,0-3,1.34-3,3v12.61c0,1.66,1.34,3,3,3,.73,0,1.73.1,2.35.55.07.1.42.73.42,2.67v11.72c0,2.27.29,4.48.86,6.56.6,2.2,1.57,4.17,2.86,5.87,1.34,1.75,3.07,3.16,5.12,4.19,2.07,1.04,4.55,1.56,7.38,1.56h8.52c1.66,0,3-1.34,3-3v-12.16c0-1.66-1.34-3-3-3h-3.02c-.67,0-.89-.14-.89-.14-.37-.68-.55-1.39-.55-2.19v-11.98c0-2.12-.35-4.01-1.05-5.6-.67-1.53-1.51-2.83-2.49-3.85-.17-.17-.33-.34-.51-.49.17-.16.34-.32.51-.5.98-1.02,1.82-2.31,2.49-3.85.7-1.59,1.05-3.47,1.05-5.6v-11.98c0-.79.18-1.51.56-2.19,0,0,0,0,0,0,0,0,.21-.14.88-.14h3.02c1.66,0,3-1.34,3-3v-12.16c0-1.66-1.34-3-3-3h0Z"/>
      </g>
      <g>
        <path class="cls-1" d="m92.14,92.8c-.83,0-1.5-.67-1.5-1.5v-12.18c0-.83.67-1.5,1.5-1.5h14.3c.08,0,.16,0,.24.02h1.1c1.69,0,2.06-.66,2.19-.91.5-.91.74-1.86.74-2.91v-11.98c0-1.92.31-3.6.93-5,.6-1.37,1.34-2.52,2.2-3.41.58-.61,1.21-1.12,1.88-1.52-.67-.42-1.3-.94-1.88-1.55-.86-.89-1.6-2.04-2.2-3.41-.61-1.4-.93-3.08-.93-5v-11.98c0-1.05-.24-2.01-.75-2.91-.14-.25-.5-.91-2.19-.91h-3.02c-.83,0-1.5-.67-1.5-1.5v-12.16c0-.83.67-1.5,1.5-1.5h8.52c2.59,0,4.85.47,6.71,1.4,1.85.93,3.4,2.19,4.6,3.76,1.18,1.54,2.06,3.34,2.61,5.35.54,1.96.81,4.03.81,6.17v11.72c0,1.96.35,3.35.97,3.83.76.59,1.87.89,3.3.89.83,0,1.5.67,1.5,1.5v12.61c0,.83-.67,1.5-1.5,1.5-1.43,0-2.54.3-3.3.89-.61.47-.97,1.87-.97,3.83v11.72c0,2.14-.27,4.21-.81,6.17-.55,2.01-1.43,3.81-2.61,5.35-1.2,1.57-2.75,2.83-4.6,3.76-1.86.93-4.12,1.4-6.71,1.4h-21.15Z"/>
        <path class="cls-4" d="m113.29,12.47c2.37,0,4.38.41,6.04,1.24,1.66.83,3.02,1.94,4.08,3.33,1.07,1.39,1.85,3,2.35,4.84.5,1.84.76,3.76.76,5.77v11.72c0,2.55.52,4.22,1.55,5.02,1.04.8,2.44,1.2,4.22,1.2v12.61c-1.78,0-3.18.4-4.22,1.2-1.03.8-1.55,2.47-1.55,5.02v11.72c0,2.01-.25,3.94-.76,5.77-.5,1.83-1.29,3.45-2.35,4.84-1.07,1.39-2.43,2.5-4.08,3.33-1.66.83-3.67,1.24-6.04,1.24h-21.15v-12.18h14.3v.02h1.34c1.72,0,2.89-.56,3.51-1.69.62-1.12.93-2.34.93-3.64v-11.98c0-1.72.27-3.18.8-4.39.53-1.21,1.17-2.2,1.91-2.97.74-.77,1.55-1.35,2.44-1.73.89-.38,1.69-.63,2.4-.75v-.18c-.71-.06-1.51-.3-2.4-.71-.89-.41-1.7-1.01-2.44-1.78-.74-.77-1.38-1.76-1.91-2.97-.53-1.21-.8-2.68-.8-4.39v-11.98c0-1.3-.31-2.51-.93-3.64-.62-1.12-1.79-1.69-3.51-1.69h-3.02v-12.16h8.52m0-3h-8.52c-1.66,0-3,1.34-3,3v12.16c0,1.66,1.34,3,3,3h3.02c.67,0,.89.14.89.14.37.68.55,1.39.55,2.19v11.98c0,2.13.35,4.01,1.05,5.6.67,1.53,1.51,2.83,2.49,3.85.16.17.33.34.5.5-.17.16-.34.32-.5.49-.98,1.02-1.82,2.32-2.49,3.85-.7,1.59-1.05,3.48-1.05,5.6v11.98c0,.79-.18,1.51-.56,2.19h0s-.21.14-.88.14h-1c-.11-.01-.23-.02-.34-.02h-14.3c-1.66,0-3,1.34-3,3v12.18c0,1.66,1.34,3,3,3h21.15c2.83,0,5.31-.52,7.38-1.56,2.06-1.03,3.78-2.44,5.12-4.19,1.3-1.7,2.26-3.67,2.86-5.87.57-2.08.86-4.29.86-6.56v-11.72c0-1.94.35-2.57.42-2.67.62-.45,1.61-.55,2.35-.55,1.66,0,3-1.34,3-3v-12.61c0-1.66-1.34-3-3-3-.73,0-1.73-.1-2.35-.55-.07-.1-.42-.73-.42-2.67v-11.72c0-2.27-.29-4.48-.86-6.56-.6-2.2-1.57-4.17-2.86-5.87-1.34-1.75-3.06-3.16-5.12-4.19-2.07-1.04-4.55-1.56-7.38-1.56h0Z"/>
      </g>
      <g>
        <path class="cls-1" d="m80.04,92.8c-2.59,0-4.85-.47-6.71-1.4-1.85-.93-3.4-2.19-4.6-3.76-1.18-1.54-2.06-3.34-2.61-5.35-.54-1.95-.81-4.03-.81-6.17v-11.72c0-1.96-.35-3.35-.97-3.83-.76-.59-1.87-.89-3.3-.89-.05,0-.1,0-.14,0h-5.51v31.62c0,.83-.67,1.5-1.5,1.5h-13.36c-.83,0-1.5-.67-1.5-1.5V12.47c0-.83.67-1.5,1.5-1.5h13.36c.83,0,1.5.67,1.5,1.5v31.6h5.76c1.38-.01,2.46-.31,3.2-.88.62-.48.97-1.87.97-3.83v-11.72c0-2.14.27-4.21.81-6.17.55-2.01,1.43-3.81,2.61-5.35,1.2-1.57,2.75-2.83,4.6-3.76,1.86-.93,4.12-1.4,6.71-1.4h8.52c.83,0,1.5.67,1.5,1.5v12.16c0,.83-.67,1.5-1.5,1.5h-3.02c-1.69,0-2.06.66-2.19.91-.5.91-.74,1.86-.74,2.91v11.98c0,1.92-.31,3.6-.92,5-.6,1.37-1.34,2.52-2.2,3.41-.58.6-1.21,1.12-1.88,1.54.67.41,1.3.92,1.88,1.52.86.9,1.6,2.04,2.2,3.41.61,1.4.93,3.08.93,5v11.98c0,1.05.24,2.01.75,2.91.13.23.46.83,1.99.89,1.58-.02,1.93-.66,2.07-.91.5-.91.75-1.86.75-2.92v-.48s0-.09,0-.14v-21.29c0-.83.67-1.5,1.5-1.5h14.3c.83,0,1.5.67,1.5,1.5v24.22c0,2.14-.27,4.22-.81,6.18-.55,2.01-1.43,3.82-2.61,5.36-1.2,1.57-2.75,2.84-4.6,3.76-1.86.93-4.12,1.4-6.71,1.4h-10.68Z"/>
        <path class="cls-4" d="m88.56,12.47v12.16h-3.02c-1.72,0-2.89.56-3.51,1.69-.62,1.13-.93,2.34-.93,3.64v11.98c0,1.72-.27,3.18-.8,4.39-.53,1.21-1.17,2.21-1.91,2.97-.74.77-1.55,1.36-2.44,1.78-.89.41-1.69.65-2.4.71v.18c.71.12,1.51.37,2.4.75.89.39,1.7.96,2.44,1.73.74.77,1.38,1.76,1.91,2.97.53,1.21.8,2.68.8,4.39v11.98c0,1.3.31,2.52.93,3.64.59,1.06,1.68,1.6,3.24,1.66,1.68-.02,2.83-.57,3.44-1.68.62-1.13.93-2.34.93-3.64v-.62h0v-21.29h14.3v24.22c0,2.01-.25,3.94-.76,5.78-.5,1.84-1.29,3.45-2.35,4.84-1.07,1.39-2.43,2.5-4.08,3.33-1.66.83-3.67,1.24-6.04,1.24h-10.68c-2.37,0-4.38-.42-6.04-1.24-1.66-.83-3.02-1.94-4.08-3.33-1.07-1.39-1.85-3-2.35-4.84-.5-1.84-.76-3.76-.76-5.77v-11.72c0-2.54-.52-4.22-1.55-5.02-1.04-.8-2.44-1.2-4.22-1.2h0s-7.16,0-7.16,0v33.12h-13.36V12.47h13.36v33.11h7.26c1.72-.02,3.1-.41,4.11-1.19,1.03-.8,1.55-2.47,1.55-5.02v-11.72c0-2.01.25-3.94.76-5.77.5-1.83,1.29-3.45,2.35-4.84,1.07-1.39,2.43-2.5,4.08-3.33,1.66-.83,3.67-1.24,6.04-1.24h8.52m0-3h-8.52c-2.83,0-5.31.52-7.38,1.56-2.06,1.03-3.78,2.44-5.12,4.19-1.3,1.7-2.26,3.67-2.86,5.87-.57,2.08-.86,4.29-.86,6.56v11.72c0,1.94-.35,2.56-.42,2.67-.6.44-1.56.54-2.27.54h-4.23V12.47c0-1.66-1.34-3-3-3h-13.36c-1.66,0-3,1.34-3,3v78.83c0,1.66,1.34,3,3,3h13.36c1.66,0,3-1.34,3-3v-30.12h3.95c.07,0,.13,0,.2,0,.73,0,1.73.1,2.35.55.07.1.42.73.42,2.67v11.72c0,2.27.29,4.48.86,6.56.6,2.2,1.57,4.17,2.86,5.87,1.34,1.75,3.07,3.16,5.12,4.19,2.07,1.04,4.55,1.56,7.38,1.56h10.68c2.83,0,5.31-.53,7.38-1.56,2.06-1.03,3.78-2.44,5.12-4.19,1.3-1.7,2.26-3.67,2.86-5.88.57-2.09.86-4.3.86-6.57v-24.22c0-1.66-1.34-3-3-3h-14.3c-1.66,0-3,1.34-3,3v21.29c0,.07,0,.13,0,.19v.42c0,.8-.18,1.51-.56,2.2,0,0,0,0,0,0,0,0-.2.12-.77.13-.51-.03-.69-.14-.69-.14-.35-.65-.53-1.37-.53-2.16v-11.98c0-2.12-.35-4.01-1.05-5.6-.67-1.53-1.51-2.83-2.49-3.85-.17-.17-.33-.34-.51-.49.17-.16.34-.32.51-.5.98-1.02,1.82-2.31,2.49-3.85.7-1.59,1.05-3.47,1.05-5.6v-11.98c0-.79.18-1.51.56-2.19,0,0,0,0,0,0,0,0,.21-.14.88-.14h3.02c1.66,0,3-1.34,3-3v-12.16c0-1.66-1.34-3-3-3h0Z"/>
      </g>
    </g>
    <g>
      <path class="cls-2" d="m96.2,61.47c-.67-.02-1.24-.45-1.42-1.09-.04-.13-1.38-4.06-10.61-10.97-2.69-2.02-4.82-4.12-6.31-6.26-1.67-2.09-2.55-4.58-2.55-7.23,0-6.5,5.45-11.79,12.14-11.79,3.34,0,6.51,1.34,8.78,3.65,2.27-2.31,5.44-3.65,8.78-3.65,6.69,0,12.14,5.29,12.14,11.79,0,2.64-.88,5.14-2.55,7.23-1.49,2.13-3.62,4.24-6.31,6.26-9.34,7-10.6,10.94-10.61,10.98-.19.64-.78,1.09-1.44,1.09-.01,0-.02,0-.04,0Z"/>
      <path class="cls-4" d="m105.01,25.63c5.88,0,10.64,4.6,10.64,10.29,0,2.39-.84,4.58-2.25,6.33-1.36,1.96-3.36,3.97-6.01,5.96-10.12,7.59-11.16,11.78-11.16,11.78,0,0-1.03-4.19-11.16-11.78-2.65-1.99-4.65-4-6.01-5.96-1.41-1.74-2.25-3.94-2.25-6.33,0-5.68,4.76-10.29,10.64-10.29,3.65,0,6.86,1.77,8.78,4.48,1.92-2.7,5.13-4.48,8.78-4.48m0-3c-3.25,0-6.35,1.13-8.78,3.12-2.43-1.99-5.53-3.12-8.78-3.12-7.52,0-13.64,5.96-13.64,13.29,0,2.97.99,5.78,2.85,8.13,1.58,2.25,3.81,4.45,6.61,6.56,8.08,6.05,9.83,9.64,10.05,10.17.25,1.43,1.44,2.49,2.9,2.49,0,0,0,0,0,0,1.46,0,2.65-1.05,2.9-2.49.23-.53,1.98-4.12,10.05-10.17,2.81-2.1,5.03-4.31,6.61-6.56,1.87-2.35,2.85-5.15,2.85-8.13,0-7.33-6.12-13.29-13.64-13.29h0Z"/>
    </g>
  </g>
  <path class="cls-3" d="m111.23,40.76c1.24-1.38,1.98-3.1,1.98-4.98,0-4.5-4.25-8.15-9.49-8.15-.28,0-.55.02-.83.04,4.32,3.02,7.39,7.68,8.34,13.08Z"/>
</svg>