<?xml version="1.0" encoding="UTF-8"?>
<svg id="Layer_1" data-name="Layer 1" xmlns="http://www.w3.org/2000/svg" viewBox="0 0 616.3 121.93">
  <defs>
    <style>
      .cls-1 {
        font-family: AvenirNext-Bold, 'Avenir Next';
        font-size: 45.33px;
        font-weight: 700;
      }

      .cls-1, .cls-2, .cls-3 {
        fill: #fff;
      }

      .cls-4 {
        fill: #c2aff0;
      }

      .cls-5 {
        fill: #e1d7ff;
      }

      .cls-6 {
        letter-spacing: -.06em;
      }

      .cls-7 {
        letter-spacing: -.01em;
      }

      .cls-8 {
        letter-spacing: -.02em;
      }

      .cls-9 {
        letter-spacing: -.02em;
      }

      .cls-3 {
        font-family: AvenirNext-UltraLight, 'Avenir Next';
        font-size: 32.62px;
        font-weight: 100;
      }

      .cls-10 {
        letter-spacing: 0em;
      }
    </style>
  </defs>
  <text class="cls-3" transform="translate(161.65 96.12) scale(1.05 1)"><tspan x="0" y="0">FOUN</tspan><tspan class="cls-8" x="95.94" y="0">D</tspan><tspan class="cls-6" x="120.27" y="0">A</tspan><tspan x="140.04" y="0">TION</tspan></text>
  <text class="cls-1" transform="translate(155.4 60.26) scale(1.03 1)"><tspan class="cls-9" x="0" y="0">T</tspan><tspan class="cls-10" x="25.52" y="0">he Kindness </tspan><tspan class="cls-7" x="304.3" y="0">C</tspan><tspan x="335.31" y="0">ode</tspan></text>
  <path class="cls-2" d="m28.97,22.79c-1.66.83-3.02,1.94-4.08,3.33-1.07,1.39-1.85,3-2.35,4.84-.5,1.84-.76,3.76-.76,5.77v11.72c0,2.55-.52,4.22-1.55,5.02-1.04.8-2.44,1.2-4.22,1.2v12.61c1.78,0,3.18.4,4.22,1.2,1.03.8,1.55,2.47,1.55,5.02v11.72c0,2.01.25,3.94.76,5.77.5,1.83,1.29,3.45,2.35,4.84,1.07,1.39,2.43,2.5,4.08,3.33,1.66.83,3.67,1.24,6.04,1.24h8.52v-12.16h-3.02c-1.72,0-2.89-.56-3.51-1.69-.62-1.12-.93-2.34-.93-3.64v-11.98c0-1.72-.27-3.18-.8-4.39-.53-1.21-1.17-2.2-1.91-2.97-.74-.77-1.55-1.35-2.44-1.73-.89-.38-1.69-.63-2.4-.75v-.18c.71-.06,1.51-.3,2.4-.71.89-.41,1.7-1.01,2.44-1.78.74-.77,1.38-1.76,1.91-2.97.53-1.21.8-2.68.8-4.39v-11.98c0-1.3.31-2.51.93-3.64.62-1.12,1.79-1.69,3.51-1.69h3.02v-12.16h-8.52c-2.37,0-4.38.41-6.04,1.24Z"/>
  <path class="cls-2" d="m101.8,73.18s-.77-3.14-7.02-8.95v18.02h0v.62c0,1.3-.31,2.52-.93,3.64-.61,1.11-1.76,1.67-3.44,1.68-1.56-.06-2.66-.6-3.24-1.66-.62-1.12-.93-2.34-.93-3.64v-11.98c0-1.72-.27-3.18-.8-4.39-.53-1.21-1.17-2.2-1.91-2.97-.74-.77-1.55-1.35-2.44-1.73-.89-.38-1.69-.63-2.4-.75v-.18c.71-.06,1.51-.3,2.4-.71.89-.41,1.7-1.01,2.44-1.78.57-.59,1.08-1.32,1.53-2.18-1.8-1.63-3.26-3.25-4.37-4.84-1.73-2.15-2.77-4.84-2.77-7.78,0-6.99,5.86-12.65,13.09-12.65.93,0,1.82.11,2.7.29v-9.68h-8.52c-2.37,0-4.38.41-6.04,1.24-1.66.83-3.02,1.94-4.08,3.33-1.07,1.39-1.85,3-2.35,4.84-.5,1.84-.76,3.76-.76,5.77v11.72c0,2.55-.52,4.22-1.55,5.02-1.02.78-2.39,1.18-4.11,1.19h-7.26V21.55h-13.36v78.83h13.36v-33.12h7.16c1.78,0,3.18.41,4.22,1.2,1.03.8,1.55,2.47,1.55,5.02v11.72c0,2.01.25,3.94.76,5.77.5,1.83,1.29,3.45,2.35,4.84,1.07,1.39,2.43,2.5,4.08,3.33s3.67,1.24,6.04,1.24h10.68c2.37,0,4.38-.42,6.04-1.24,1.66-.83,3.02-1.94,4.08-3.33,1.07-1.39,1.85-3.01,2.35-4.84.5-1.84.76-3.76.76-5.78v-21.18c-6.48,5.96-7.28,9.18-7.28,9.18Z"/>
  <path class="cls-4" d="m110.88,34.71c-3.74,0-7.04,1.64-9.01,4.15-1.97-2.5-5.27-4.15-9.01-4.15-6.03,0-10.91,4.27-10.91,9.53,0,2.21.86,4.24,2.31,5.86,1.4,1.81,3.45,3.68,6.17,5.52,10.38,7.03,11.44,10.92,11.44,10.92,0,0,1.06-3.89,11.44-10.92,2.72-1.84,4.77-3.71,6.17-5.52,1.45-1.62,2.31-3.65,2.31-5.86,0-5.26-4.89-9.53-10.91-9.53Z"/>
  <path class="cls-2" d="m133.21,53.47c-1.03-.8-1.55-2.47-1.55-5.02v-11.72c0-2.01-.25-3.94-.76-5.77-.5-1.83-1.29-3.45-2.35-4.84-1.07-1.39-2.43-2.5-4.08-3.33-1.66-.83-3.67-1.24-6.04-1.24h-8.52v9.68c.87-.18,1.77-.29,2.7-.29,7.23,0,13.09,5.66,13.09,12.65,0,2.93-1.04,5.63-2.77,7.78-1.11,1.59-2.57,3.22-4.37,4.84.45.86.96,1.59,1.53,2.18.74.77,1.55,1.36,2.44,1.78.89.41,1.69.65,2.4.71v.18c-.71.12-1.51.37-2.4.75-.89.39-1.7.96-2.44,1.73-.74.77-1.38,1.76-1.91,2.97-.53,1.21-.8,2.68-.8,4.39v11.98c0,1.3-.31,2.52-.93,3.64-.62,1.12-1.79,1.69-3.51,1.69h-1.34v-.02h-.6c-.11,1.29-.32,2.55-.66,3.76-.5,1.84-1.29,3.45-2.35,4.84-1.07,1.39-2.43,2.5-4.08,3.33-.19.09-.39.16-.59.24h15.13c2.37,0,4.38-.42,6.04-1.24,1.66-.83,3.02-1.94,4.08-3.33,1.07-1.39,1.85-3,2.35-4.84.5-1.84.76-3.76.76-5.77v-11.72c0-2.54.52-4.22,1.55-5.02,1.04-.8,2.44-1.2,4.22-1.2v-12.61c-1.78,0-3.18-.4-4.22-1.2Z"/>
  <path class="cls-5" d="m117.5,49.82c1.24-1.38,1.98-3.1,1.98-4.98,0-4.5-4.25-8.15-9.49-8.15-.28,0-.55.02-.83.04,4.32,3.02,7.39,7.68,8.34,13.08Z"/>
</svg>