<?xml version="1.0" encoding="UTF-8"?>
<svg id="Layer_1" data-name="Layer 1" xmlns="http://www.w3.org/2000/svg" viewBox="0 0 186.52 88.3">
  <defs>
    <style>
      .cls-1 {
        fill: #fff;
      }

      .cls-2 {
        fill: #c2aff0;
      }

      .cls-3 {
        fill: #e1d7ff;
      }
    </style>
  </defs>
  <path class="cls-1" d="m170.62,62.09l-11.65-3.93-11.81-13.06-14.64-4.09-5.19-16.84L98.84.39l-18.1,17.31-10.07,17.79-18.89,11.33-8.81-7.87-17.16,21.41-17.16,8.34-7.24,17h183.21l-14.01-23.61Zm-137.41,1.89l-5.51,4.09-1.73,15.9h-11.8l1.1-6.45-4.56,5.51-6.45.94,5.51-13.54,18.73-9.13,12.43-17.31-7.71,19.99Zm56.03-45.33l-2.52,19.27-6.77,8.9-8.03,33.53-3.15-26.13-8.5,7.24-2.36-8.03-3.94-3.78,17.94-11.74,10.55-18.64,16.68-13.06-9.92,12.43Zm23.3,19.27l-9.13-31.71,20.46,17.94-11.49-3.67.16,17.43Zm42.34,36.45l-4.83-14.17-15.32-16.21,11.96,2.83,9.13,11.81-.94,15.74Zm14.95-8.5l9.29,17.31h-9.29v-17.31Z"/>
  <path class="cls-2" d="m43.09,35.64l8.67,8.35,17.89-10.68,4.84-8.45c-.21-7.13-6.24-12.85-13.66-12.85-4.69,0-8.82,2.28-11.29,5.76-2.47-3.48-6.6-5.76-11.29-5.76-7.56,0-13.68,5.92-13.68,13.22,0,3.07,1.08,5.89,2.9,8.13,1.75,2.51,4.32,5.1,7.73,7.66.75.56,1.45,1.1,2.12,1.64l5.78-7.02Z"/>
  <path class="cls-3" d="m72.21,24.29c0-.07,0-.13,0-.2,0-5.75-5.43-10.41-12.12-10.41-.36,0-.71.03-1.06.06,5.17,3.62,8.94,9.07,10.39,15.42l2.78-4.87Z"/>
</svg>