<?xml version="1.0" encoding="UTF-8"?>
<svg id="Layer_1" data-name="Layer 1" xmlns="http://www.w3.org/2000/svg" viewBox="0 0 761.11 581.82">
  <defs>
    <style>
      .cls-1 {
        fill: #e4e4e4;
      }

      .cls-2 {
        fill: #979797;
      }

      .cls-3 {
        fill: #b1b1b1;
      }

      .cls-4 {
        fill: #cacaca;
      }
    </style>
  </defs>
  <g>
    <rect class="cls-1" x="487.17" y="407.58" width="106.3" height="130.09"/>
    <path class="cls-4" d="m487.17,418.49s9.74,27.74,46.83,40.61c37.1,12.87,59.18,0,59.18,0l.29-54.83-106.3,14.22Z"/>
    <path class="cls-1" d="m625.87,313.42c-2.37-.32-4.76.55-7.04,2.35-2.9-66.08-36.9-118.23-78.41-118.23s-75.36,51.92-78.39,117.79c-2-1.52-4.12-2.27-6.25-2.06-8.38.8-13.78,15.99-12.07,33.93,1.72,17.94,9.9,31.83,18.29,31.03,2.25-.22,4.29-1.48,6.03-3.54,11.96,45.64,39.87,77.65,72.39,77.65s60.01-31.53,72.11-76.61c1.37,1.31,2.92,2.13,4.61,2.36,8.34,1.13,17.06-12.44,19.47-30.3,2.41-17.86-2.4-33.25-10.75-34.37Z"/>
    <path class="cls-2" d="m462.36,349.54s-22.11-69.58-14.31-96.25c7.8-26.66,31.87-38.37,31.87-38.37,0,0,.65-11.71,19.51-26.01,18.86-14.31,24.06-12.36,24.06-12.36,0,0-18.21,20.81,0,12.36,18.21-8.45,19.5-19.84,19.5-19.84,0,0,33.18,10.09,40.98,20.49,7.8,10.41,9.75,21.46,9.75,21.46,0,0,35.12,12.02,37.07,48.28,1.95,36.26-13.66,90.23-13.66,90.23,0,0-10.35-11.89-6.86-33.17,3.49-21.28-18.83-38.02-21.97-62.43s0-28.95,0-28.95c0,0-8.23,17.79-49.63,15.7s-68.61,28.6-67.91,59.64c.7,31.04-.7,42.9-2.44,46.74s-5.96,2.47-5.96,2.47Z"/>
    <path class="cls-2" d="m699.33,500.73c-61.61-22.16-68.64-23.24-82.15-40.54s-23.78-21.08-23.78-21.08c0,0,3.78,35.13-14.59,47.02-18.38,11.89-30.81,23.78-33.51,32.43-2.7,8.65-4.97,16.21-4.97,16.21,0,0-2.27-7.57-4.97-16.21-2.7-8.65-15.13-20.54-33.51-32.43-18.38-11.89-14.59-47.02-14.59-47.02,0,0-10.27,3.78-23.78,21.08-13.51,17.3-20.54,18.38-82.15,40.54-61.61,22.16-50.26,82.05-50.26,82.05h418.54s11.35-59.89-50.26-82.05Z"/>
  </g>
  <g>
    <polygon class="cls-1" points="188.66 350.89 154.05 444.99 115.11 476.36 115.11 524.49 249.5 568.3 375.25 526.66 380.11 482.85 321.7 394.16 303.86 345.48 188.66 350.89"/>
    <path class="cls-3" d="m389.64,495.48c-5.48-1.06-10.6-2.25-15.42-3.54-29.33,29.56-73.25,48.34-122.34,48.34s-94.04-19.22-123.37-49.38c-5.88,1.7-12.24,3.24-19.15,4.58-101.27,19.6-104.53,86.34-104.53,86.34h489.35s-3.27-66.74-104.53-86.34Z"/>
    <path class="cls-4" d="m191.98,397.71s16.88,35.24,50.33,49.32c33.45,14.08,73.03,6.67,73.03,6.67l14.88-60.88-21.01-16.9-117.24,21.79Z"/>
    <path class="cls-1" d="m335.25,127.66s-29.18-23.24-72.29-30.9l.1-2.42c-4.63,0-9.15.22-13.56.61-4.41-.4-8.93-.61-13.56-.61l.1,2.42c-43.11,7.66-72.29,30.9-72.29,30.9l-42.47,126.09,37.89,98,15.03,3.92s36.59,41.81,52.92,50.96c12.08,6.77,18.91,8.53,21.66,8.99v.17s.24,0,.72-.06c.48.06.71.06.71.06v-.17c2.75-.46,9.58-2.22,21.66-8.99,16.33-9.15,52.92-50.96,52.92-50.96l15.03-3.92,37.89-98-42.47-126.09Z"/>
    <path class="cls-2" d="m88.76,500.49c6.38-1.89,13.23-3.57,20.61-5,101.27-19.6,86.89-81.01,86.24-94.73-.33-7.02-2.04-17.29-3.62-25.65-14.48-13.47-26.45-27.22-27.09-35.77-1.31-17.64-3.92-24.83-3.92-24.83,0,0-12.41-1.96-10.45-21.56,1.96-19.6-15.03-32.51-15.03-32.51,0,0,31.36-41.31,42.47-75.29,11.11-33.97,8.49-61.41,8.49-61.41,0,0,38.32,7.19,57.38,6.53s28.86,7.84,28.86,7.84c0,0,.65-16.99,5.23-22.21,4.57-5.23,13.72-10.45,13.72-10.45,0,0-11.11,13.72-11.11,25.48s1.31,14.37,1.31,14.37c0,0,7.84-19.6,18.29-19.93s15.68,0,15.68,0c0,0-22.87,2.94-18.29,13.39,4.57,10.45,35.93-14.37,33.32,49s22.21,77.09,22.21,77.09c0,0-8.49,7.84-8.49,26.13s-5.88,24.17-8.49,25.48l-2.61,1.31s-8.62,37.88-27.01,60.46c-1.4,7.68-2.74,16.34-3.04,22.51-.65,13.72-15.03,75.13,86.24,94.73,2.15.42,4.23.86,6.29,1.32-8.04-16.18-17.74-42.02-18.21-73.18-.82-53.57,54.39-81.67,42.63-122.83-11.76-41.16-52.92-122.83-54.88-188.81-1.96-65.99-87.55-39.85-87.55-39.85,0,0-16.99-25.4-43.12-25.4s-67.29-.08-84.93,44.35c-17.64,44.43-32.67,69.25-65.99,146.35s-14.37,85.59,5.23,139.81c13.69,37.88,5.7,93.29-.36,123.25Z"/>
    <ellipse class="cls-1" cx="247.61" cy="285.67" rx="89.13" ry="142.37"/>
  </g>
</svg>